<svg width="24" height="24" viewBox="0 0 56 56" fill="none" xmlns="http://www.w3.org/2000/svg">
<g clip-path="url(#clip0_1_17)">
<path d="M47.9195 21.474H9.38052C9.34052 21.041 9.22352 20.635 9.03652 20.265L46.8555 12.422C47.6025 12.268 48.2455 12.089 48.6635 11.452C49.0825 10.814 48.8195 9.93401 48.6635 9.18601L48.2795 7.34201C48.0055 6.02401 47.4875 5.778 46.1415 5.778L5.16807 14.228C4.42007 14.382 3.80952 14.313 3.39052 14.952C2.1357 14.952 3.5585 18.716 2.881 15.452L3.39052 18.519C3.45152 18.81 4.12052 24.581 4.12052 24.581V52.472C4.12052 54.046 5.40152 55.328 6.97752 55.328H47.9185C49.4945 55.328 50.7755 54.046 50.7755 52.472V24.331C50.7775 22.756 49.4965 21.474 47.9195 21.474ZM47.9195 23.379C48.4445 23.379 48.8725 23.806 48.8725 24.331V24.534L48.975 53.424L48.8715 24.2871L48.8735 27.742C48.8735 27.742 48.795 28.442 48.975 28.742C49.157 29.042 49.3815 29.235 49.7755 29.235L48.8985 34.0481L48.8715 35.44L48.975 53.424H6.02552V34.856V25.803L8.34052 24.244C8.60652 23.995 8.82252 23.702 8.99452 23.38L47.9195 23.379ZM48.8735 34.169L50.1565 27.964L49.0725 25.513L48.8735 25.803V34.169ZM6.02552 53.424H48.975L49.094 53.742L6.02552 53.424ZM6.02552 32.086V25.513V25.803V32.086ZM46.8555 7.34201C46.4695 7.34201 46.9205 7.32801 46.8555 7.34201C46.7905 7.35601 46.9805 7.28901 47.0725 7.72901L47.381 10.452C47.521 10.239 47.432 10.701 47.381 10.452C47.241 10.664 46.7185 10.504 46.4695 10.556L47.381 10.452L46.8555 7.34201ZM46.8555 7.34201L47.381 10.452L28.08 14.228L6.02652 18.396L5.39552 15.952L46.8555 7.34201ZM47.2095 53.7216L6.02552 53.424C5.50052 53.424 5.39552 53.424 6.02552 52.472L5.39552 53.424H48.975L48.8735 52.472C49.094 53.742 47.7355 53.7216 47.2095 53.7216Z" fill="var(--TEXT_COLOR_L4)"/>
</g>
<defs>
<clipPath id="clip0_1_17">
<rect width="55.086" height="55.086" fill="var(--TEXT_COLOR_L4)"/>
</clipPath>
</defs>
</svg>
