<?xml version="1.0" standalone="no"?>
<!DOCTYPE svg PUBLIC "-//W3C//DTD SVG 20010904//EN"
 "http://www.w3.org/TR/2001/REC-SVG-20010904/DTD/svg10.dtd">
<svg version="1.0" xmlns="http://www.w3.org/2000/svg"
 width="512.000000pt" height="512.000000pt" viewBox="0 0 512.000000 512.000000"
 preserveAspectRatio="xMidYMid meet">

<g transform="translate(0.000000,512.000000) scale(0.100000,-0.100000)"
fill="var(--TEXT_COLOR_L4)" stroke="none">
<path d="M95 4786 c-41 -18 -83 -69 -90 -109 -3 -18 -5 -462 -3 -987 l3 -955
23 -74 c96 -313 336 -582 750 -844 135 -85 455 -246 632 -317 181 -73 199 -73
388 3 79 32 145 57 147 55 1 -2 10 -29 20 -62 90 -290 386 -598 816 -849 133
-78 388 -202 549 -267 182 -74 199 -73 390 4 446 180 814 408 1060 657 153
154 262 332 312 504 l23 80 0 977 c0 971 0 977 -21 1004 -11 15 -33 37 -48 48
-27 21 -36 21 -936 24 l-909 2 -3 509 c-3 497 -4 510 -24 537 -11 15 -33 37
-48 48 -27 21 -30 21 -1514 23 -1221 2 -1492 0 -1517 -11z m2783 -1158 l-3
-853 -26 -72 c-77 -209 -311 -445 -632 -638 -135 -80 -373 -198 -515 -254
l-103 -41 -107 42 c-133 52 -416 194 -542 273 -279 175 -472 361 -566 547 -62
124 -64 139 -64 700 l0 507 509 3 c497 3 510 4 537 24 53 39 69 71 69 134 0
63 -16 95 -69 134 -27 20 -40 21 -537 24 l-509 3 0 159 0 160 1280 0 1281 0
-3 -852z m1922 -428 l0 -159 -509 -3 c-497 -3 -510 -4 -537 -24 -53 -39 -69
-71 -69 -134 0 -63 16 -95 69 -134 27 -20 40 -21 537 -24 l509 -3 0 -507 c0
-561 -2 -576 -64 -700 -93 -185 -289 -374 -566 -547 -122 -76 -405 -219 -541
-274 l-107 -42 -108 42 c-133 52 -415 194 -544 274 -206 128 -388 284 -484
415 -55 75 -110 178 -124 235 -25 100 -30 88 61 141 468 272 755 579 848 910
20 72 23 106 27 387 l4 307 799 0 799 0 0 -160z"/>
<path d="M1055 3186 c-89 -41 -113 -125 -80 -281 71 -339 416 -562 760 -490
239 50 441 254 491 495 38 183 -14 285 -146 285 -99 0 -146 -50 -161 -170 -16
-130 -68 -210 -171 -266 -58 -31 -70 -34 -148 -34 -78 0 -90 3 -148 34 -105
57 -154 134 -171 267 -10 80 -25 112 -73 147 -34 25 -113 32 -153 13z"/>
<path d="M3381 2065 c-236 -52 -438 -257 -487 -495 -38 -183 14 -285 146 -285
99 0 146 50 161 169 17 133 77 224 184 276 69 33 199 34 265 2 112 -54 172
-143 189 -276 15 -121 62 -171 161 -171 63 0 95 16 134 69 30 39 29 174 -2
271 -98 317 -427 510 -751 440z"/>
</g>
</svg>
