<?xml version="1.0" encoding="iso-8859-1"?>
<!-- Generator: Adobe Illustrator 19.0.0, SVG Export Plug-In . SVG Version: 6.00 Build 0)  -->
<svg version="1.1" id="Capa_1" xmlns="http://www.w3.org/2000/svg" xmlns:xlink="http://www.w3.org/1999/xlink" x="0px" y="0px"
	 viewBox="0 0 488.47 488.47" style="enable-background:new 0 0 488.47 488.47;" xml:space="preserve">
<g>
	<path d="M488.47,472.966L273.655,258.151c23.539-27.281,37.776-62.814,37.776-101.673c0-85.999-69.716-155.716-155.716-155.716
		S0,70.479,0,156.478c0,85.999,69.716,155.716,155.716,155.716c39.636,0,75.805-14.817,103.293-39.204l214.719,214.718
		L488.47,472.966z M155.716,291.343c-74.484,0-134.865-60.381-134.865-134.865c0-74.484,60.381-134.865,134.865-134.865
		c74.484,0,134.865,60.381,134.865,134.865C290.58,230.962,230.199,291.343,155.716,291.343z"/>
</g>
<g>
</g>
<g>
</g>
<g>
</g>
<g>
</g>
<g>
</g>
<g>
</g>
<g>
</g>
<g>
</g>
<g>
</g>
<g>
</g>
<g>
</g>
<g>
</g>
<g>
</g>
<g>
</g>
<g>
</g>
</svg>
